solid OpenSCAD_Model
  facet normal -1 0 0
    outer loop
      vertex 0 200 -20
      vertex 0 190 13
      vertex 0 200 15
    endloop
  endfacet
  facet normal -1 0 0
    outer loop
      vertex 0 200 -20
      vertex 0 10 13
      vertex 0 190 13
    endloop
  endfacet
  facet normal -1 0 0
    outer loop
      vertex 0 0 -20
      vertex 0 10 13
      vertex 0 200 -20
    endloop
  endfacet
  facet normal -1 0 0
    outer loop
      vertex 0 0 15
      vertex 0 10 13
      vertex 0 0 -20
    endloop
  endfacet
  facet normal -1 0 0
    outer loop
      vertex 0 10 13
      vertex 0 0 15
      vertex 0 10 15
    endloop
  endfacet
  facet normal -1 -0 0
    outer loop
      vertex 0 200 15
      vertex 0 190 13
      vertex 0 190 15
    endloop
  endfacet
  facet normal 0 0 1
    outer loop
      vertex 10 10 15
      vertex 5.5 5 15
      vertex 10 0 15
    endloop
  endfacet
  facet normal 0 0 1
    outer loop
      vertex 10 10 15
      vertex 4.80902 5.95106 15
      vertex 5.5 5 15
    endloop
  endfacet
  facet normal -0 0 1
    outer loop
      vertex 0 10 15
      vertex 4.80902 5.95106 15
      vertex 10 10 15
    endloop
  endfacet
  facet normal 0 0 1
    outer loop
      vertex 3.69098 5.58778 15
      vertex 0 10 15
      vertex 3.69098 4.41221 15
    endloop
  endfacet
  facet normal 0 0 1
    outer loop
      vertex 4.80902 5.95106 15
      vertex 0 10 15
      vertex 3.69098 5.58778 15
    endloop
  endfacet
  facet normal -0 0 1
    outer loop
      vertex 4.80902 4.04894 15
      vertex 10 0 15
      vertex 5.5 5 15
    endloop
  endfacet
  facet normal 0 0 1
    outer loop
      vertex 0 0 15
      vertex 4.80902 4.04894 15
      vertex 3.69098 4.41221 15
    endloop
  endfacet
  facet normal 0 0 1
    outer loop
      vertex 4.80902 4.04894 15
      vertex 0 0 15
      vertex 10 0 15
    endloop
  endfacet
  facet normal 0 0 1
    outer loop
      vertex 0 0 15
      vertex 3.69098 4.41221 15
      vertex 0 10 15
    endloop
  endfacet
  facet normal 0 0 1
    outer loop
      vertex 10 200 15
      vertex 5.5 195 15
      vertex 10 190 15
    endloop
  endfacet
  facet normal 0 0 1
    outer loop
      vertex 10 200 15
      vertex 4.80902 195.951 15
      vertex 5.5 195 15
    endloop
  endfacet
  facet normal -0 0 1
    outer loop
      vertex 0 200 15
      vertex 4.80902 195.951 15
      vertex 10 200 15
    endloop
  endfacet
  facet normal 0 0 1
    outer loop
      vertex 3.69098 195.588 15
      vertex 0 200 15
      vertex 3.69098 194.412 15
    endloop
  endfacet
  facet normal 0 0 1
    outer loop
      vertex 4.80902 195.951 15
      vertex 0 200 15
      vertex 3.69098 195.588 15
    endloop
  endfacet
  facet normal -0 0 1
    outer loop
      vertex 4.80902 194.049 15
      vertex 10 190 15
      vertex 5.5 195 15
    endloop
  endfacet
  facet normal 0 0 1
    outer loop
      vertex 0 190 15
      vertex 4.80902 194.049 15
      vertex 3.69098 194.412 15
    endloop
  endfacet
  facet normal 0 0 1
    outer loop
      vertex 4.80902 194.049 15
      vertex 0 190 15
      vertex 10 190 15
    endloop
  endfacet
  facet normal 0 0 1
    outer loop
      vertex 0 190 15
      vertex 3.69098 194.412 15
      vertex 0 200 15
    endloop
  endfacet
  facet normal -1 0 0
    outer loop
      vertex 10 190 13
      vertex 10 180 13
      vertex 10 190 15
    endloop
  endfacet
  facet normal -1 0 0
    outer loop
      vertex 10 190 15
      vertex 10 200 23
      vertex 10 200 15
    endloop
  endfacet
  facet normal -1 0 0
    outer loop
      vertex 10 180 23
      vertex 10 190 15
      vertex 10 180 13
    endloop
  endfacet
  facet normal -1 0 0
    outer loop
      vertex 10 190 15
      vertex 10 180 23
      vertex 10 200 23
    endloop
  endfacet
  facet normal 1 0 0
    outer loop
      vertex 10 10 15
      vertex 10 0 15
      vertex 10 10 13
    endloop
  endfacet
  facet normal 1 -0 0
    outer loop
      vertex 10 10 13
      vertex 10 180 0
      vertex 10 180 13
    endloop
  endfacet
  facet normal 1 0 0
    outer loop
      vertex 10 10 13
      vertex 10 0 0
      vertex 10 180 0
    endloop
  endfacet
  facet normal 1 0 0
    outer loop
      vertex 10 0 0
      vertex 10 10 13
      vertex 10 0 15
    endloop
  endfacet
  facet normal -0 0 1
    outer loop
      vertex 10 180 0
      vertex 135 0 0
      vertex 135 180 0
    endloop
  endfacet
  facet normal 0 0 1
    outer loop
      vertex 135 0 0
      vertex 10 180 0
      vertex 10 0 0
    endloop
  endfacet
  facet normal 0 0 1
    outer loop
      vertex 139.809 5.95106 0
      vertex 139.809 4.04894 0
      vertex 140.5 5 0
    endloop
  endfacet
  facet normal -0 0 1
    outer loop
      vertex 138.691 5.58778 0
      vertex 139.809 4.04894 0
      vertex 139.809 5.95106 0
    endloop
  endfacet
  facet normal 0 0 1
    outer loop
      vertex 139.809 4.04894 0
      vertex 138.691 5.58778 0
      vertex 138.691 4.41221 0
    endloop
  endfacet
  facet normal 0 0 1
    outer loop
      vertex 139.809 195.951 0
      vertex 139.809 194.049 0
      vertex 140.5 195 0
    endloop
  endfacet
  facet normal -0 0 1
    outer loop
      vertex 138.691 195.588 0
      vertex 139.809 194.049 0
      vertex 139.809 195.951 0
    endloop
  endfacet
  facet normal 0 0 1
    outer loop
      vertex 139.809 194.049 0
      vertex 138.691 195.588 0
      vertex 138.691 194.412 0
    endloop
  endfacet
  facet normal 0 0 1
    outer loop
      vertex 4.80902 5.95106 0
      vertex 4.80902 4.04894 0
      vertex 5.5 5 0
    endloop
  endfacet
  facet normal -0 0 1
    outer loop
      vertex 3.69098 5.58778 0
      vertex 4.80902 4.04894 0
      vertex 4.80902 5.95106 0
    endloop
  endfacet
  facet normal 0 0 1
    outer loop
      vertex 4.80902 4.04894 0
      vertex 3.69098 5.58778 0
      vertex 3.69098 4.41221 0
    endloop
  endfacet
  facet normal 0 0 1
    outer loop
      vertex 4.80902 195.951 0
      vertex 4.80902 194.049 0
      vertex 5.5 195 0
    endloop
  endfacet
  facet normal -0 0 1
    outer loop
      vertex 3.69098 195.588 0
      vertex 4.80902 194.049 0
      vertex 4.80902 195.951 0
    endloop
  endfacet
  facet normal 0 0 1
    outer loop
      vertex 4.80902 194.049 0
      vertex 3.69098 195.588 0
      vertex 3.69098 194.412 0
    endloop
  endfacet
  facet normal 0 -1 0
    outer loop
      vertex 0 0 15
      vertex 10 0 0
      vertex 10 0 15
    endloop
  endfacet
  facet normal 0 -1 -0
    outer loop
      vertex 10 0 0
      vertex 0 0 -20
      vertex 135 0 0
    endloop
  endfacet
  facet normal 0 -1 0
    outer loop
      vertex 0 0 -20
      vertex 10 0 0
      vertex 0 0 15
    endloop
  endfacet
  facet normal 0 -1 0
    outer loop
      vertex 135 0 0
      vertex 145 0 15
      vertex 135 0 15
    endloop
  endfacet
  facet normal 0 -1 0
    outer loop
      vertex 135 0 0
      vertex 145 0 -20
      vertex 145 0 15
    endloop
  endfacet
  facet normal 0 -1 0
    outer loop
      vertex 145 0 -20
      vertex 135 0 0
      vertex 0 0 -20
    endloop
  endfacet
  facet normal 0 1 -0
    outer loop
      vertex 145 200 -20
      vertex 135 200 15
      vertex 145 200 15
    endloop
  endfacet
  facet normal 0 1 0
    outer loop
      vertex 135 200 15
      vertex 145 200 -20
      vertex 10 200 15
    endloop
  endfacet
  facet normal 0 1 0
    outer loop
      vertex 0 200 -20
      vertex 10 200 15
      vertex 145 200 -20
    endloop
  endfacet
  facet normal 0 1 0
    outer loop
      vertex 10 200 15
      vertex 0 200 -20
      vertex 0 200 15
    endloop
  endfacet
  facet normal 0 1 -0
    outer loop
      vertex 135 200 15
      vertex 10 200 23
      vertex 135 200 23
    endloop
  endfacet
  facet normal 0 1 0
    outer loop
      vertex 10 200 23
      vertex 135 200 15
      vertex 10 200 15
    endloop
  endfacet
  facet normal 0 -1 0
    outer loop
      vertex 0 190 13
      vertex 10 190 15
      vertex 0 190 15
    endloop
  endfacet
  facet normal 0 -1 -0
    outer loop
      vertex 10 190 15
      vertex 0 190 13
      vertex 10 190 13
    endloop
  endfacet
  facet normal -0 0 1
    outer loop
      vertex 0 190 13
      vertex 10 180 13
      vertex 10 190 13
    endloop
  endfacet
  facet normal 0 0 1
    outer loop
      vertex 0 10 13
      vertex 10 180 13
      vertex 0 190 13
    endloop
  endfacet
  facet normal 0 0 1
    outer loop
      vertex 10 180 13
      vertex 0 10 13
      vertex 10 10 13
    endloop
  endfacet
  facet normal 0 1 -0
    outer loop
      vertex 10 10 13
      vertex 0 10 15
      vertex 10 10 15
    endloop
  endfacet
  facet normal 0 1 0
    outer loop
      vertex 0 10 15
      vertex 10 10 13
      vertex 0 10 13
    endloop
  endfacet
  facet normal -0.809017 -0.587786 0
    outer loop
      vertex 5.5 5 0
      vertex 4.80902 5.95106 15
      vertex 4.80902 5.95106 0
    endloop
  endfacet
  facet normal -0.809017 -0.587786 0
    outer loop
      vertex 4.80902 5.95106 15
      vertex 5.5 5 0
      vertex 5.5 5 15
    endloop
  endfacet
  facet normal 1 -0 0
    outer loop
      vertex 3.69098 4.41221 15
      vertex 3.69098 5.58778 0
      vertex 3.69098 5.58778 15
    endloop
  endfacet
  facet normal 1 0 0
    outer loop
      vertex 3.69098 5.58778 0
      vertex 3.69098 4.41221 15
      vertex 3.69098 4.41221 0
    endloop
  endfacet
  facet normal 0.309017 -0.951056 0
    outer loop
      vertex 3.69098 5.58778 0
      vertex 4.80902 5.95106 15
      vertex 3.69098 5.58778 15
    endloop
  endfacet
  facet normal 0.309017 -0.951056 0
    outer loop
      vertex 4.80902 5.95106 15
      vertex 3.69098 5.58778 0
      vertex 4.80902 5.95106 0
    endloop
  endfacet
  facet normal 0.309017 0.951056 -0
    outer loop
      vertex 4.80902 4.04894 0
      vertex 3.69098 4.41221 15
      vertex 4.80902 4.04894 15
    endloop
  endfacet
  facet normal 0.309017 0.951056 0
    outer loop
      vertex 3.69098 4.41221 15
      vertex 4.80902 4.04894 0
      vertex 3.69098 4.41221 0
    endloop
  endfacet
  facet normal -0.809017 0.587785 0
    outer loop
      vertex 4.80902 4.04894 0
      vertex 5.5 5 15
      vertex 5.5 5 0
    endloop
  endfacet
  facet normal -0.809017 0.587785 0
    outer loop
      vertex 5.5 5 15
      vertex 4.80902 4.04894 0
      vertex 4.80902 4.04894 15
    endloop
  endfacet
  facet normal -0.809015 -0.587788 0
    outer loop
      vertex 5.5 195 0
      vertex 4.80902 195.951 15
      vertex 4.80902 195.951 0
    endloop
  endfacet
  facet normal -0.809015 -0.587788 0
    outer loop
      vertex 4.80902 195.951 15
      vertex 5.5 195 0
      vertex 5.5 195 15
    endloop
  endfacet
  facet normal 1 -0 0
    outer loop
      vertex 3.69098 194.412 15
      vertex 3.69098 195.588 0
      vertex 3.69098 195.588 15
    endloop
  endfacet
  facet normal 1 0 0
    outer loop
      vertex 3.69098 195.588 0
      vertex 3.69098 194.412 15
      vertex 3.69098 194.412 0
    endloop
  endfacet
  facet normal 0.309013 -0.951058 0
    outer loop
      vertex 3.69098 195.588 0
      vertex 4.80902 195.951 15
      vertex 3.69098 195.588 15
    endloop
  endfacet
  facet normal 0.309013 -0.951058 0
    outer loop
      vertex 4.80902 195.951 15
      vertex 3.69098 195.588 0
      vertex 4.80902 195.951 0
    endloop
  endfacet
  facet normal 0.309013 0.951058 -0
    outer loop
      vertex 4.80902 194.049 0
      vertex 3.69098 194.412 15
      vertex 4.80902 194.049 15
    endloop
  endfacet
  facet normal 0.309013 0.951058 0
    outer loop
      vertex 3.69098 194.412 15
      vertex 4.80902 194.049 0
      vertex 3.69098 194.412 0
    endloop
  endfacet
  facet normal -0.809015 0.587788 0
    outer loop
      vertex 4.80902 194.049 0
      vertex 5.5 195 15
      vertex 5.5 195 0
    endloop
  endfacet
  facet normal -0.809015 0.587788 0
    outer loop
      vertex 5.5 195 15
      vertex 4.80902 194.049 0
      vertex 4.80902 194.049 15
    endloop
  endfacet
  facet normal 1 0 0
    outer loop
      vertex 135 200 23
      vertex 135 190 15
      vertex 135 200 15
    endloop
  endfacet
  facet normal 1 -0 0
    outer loop
      vertex 135 180 23
      vertex 135 190 15
      vertex 135 200 23
    endloop
  endfacet
  facet normal 1 0 0
    outer loop
      vertex 135 180 13
      vertex 135 190 15
      vertex 135 180 23
    endloop
  endfacet
  facet normal 1 0 0
    outer loop
      vertex 135 190 15
      vertex 135 180 13
      vertex 135 190 13
    endloop
  endfacet
  facet normal -1 0 0
    outer loop
      vertex 135 180 0
      vertex 135 10 13
      vertex 135 180 13
    endloop
  endfacet
  facet normal -1 0 0
    outer loop
      vertex 135 0 0
      vertex 135 10 13
      vertex 135 180 0
    endloop
  endfacet
  facet normal -1 0 0
    outer loop
      vertex 135 0 15
      vertex 135 10 13
      vertex 135 0 0
    endloop
  endfacet
  facet normal -1 0 0
    outer loop
      vertex 135 10 13
      vertex 135 0 15
      vertex 135 10 15
    endloop
  endfacet
  facet normal 0 0 1
    outer loop
      vertex 145 10 15
      vertex 140.5 5 15
      vertex 145 0 15
    endloop
  endfacet
  facet normal 0 0 1
    outer loop
      vertex 145 10 15
      vertex 139.809 5.95106 15
      vertex 140.5 5 15
    endloop
  endfacet
  facet normal -0 0 1
    outer loop
      vertex 135 10 15
      vertex 139.809 5.95106 15
      vertex 145 10 15
    endloop
  endfacet
  facet normal 0 0 1
    outer loop
      vertex 138.691 5.58778 15
      vertex 135 10 15
      vertex 138.691 4.41221 15
    endloop
  endfacet
  facet normal 0 0 1
    outer loop
      vertex 139.809 5.95106 15
      vertex 135 10 15
      vertex 138.691 5.58778 15
    endloop
  endfacet
  facet normal -0 0 1
    outer loop
      vertex 139.809 4.04894 15
      vertex 145 0 15
      vertex 140.5 5 15
    endloop
  endfacet
  facet normal 0 0 1
    outer loop
      vertex 135 0 15
      vertex 139.809 4.04894 15
      vertex 138.691 4.41221 15
    endloop
  endfacet
  facet normal 0 0 1
    outer loop
      vertex 139.809 4.04894 15
      vertex 135 0 15
      vertex 145 0 15
    endloop
  endfacet
  facet normal 0 0 1
    outer loop
      vertex 135 0 15
      vertex 138.691 4.41221 15
      vertex 135 10 15
    endloop
  endfacet
  facet normal 0 0 1
    outer loop
      vertex 145 200 15
      vertex 140.5 195 15
      vertex 145 190 15
    endloop
  endfacet
  facet normal 0 0 1
    outer loop
      vertex 145 200 15
      vertex 139.809 195.951 15
      vertex 140.5 195 15
    endloop
  endfacet
  facet normal -0 0 1
    outer loop
      vertex 135 200 15
      vertex 139.809 195.951 15
      vertex 145 200 15
    endloop
  endfacet
  facet normal 0 0 1
    outer loop
      vertex 138.691 195.588 15
      vertex 135 200 15
      vertex 138.691 194.412 15
    endloop
  endfacet
  facet normal 0 0 1
    outer loop
      vertex 139.809 195.951 15
      vertex 135 200 15
      vertex 138.691 195.588 15
    endloop
  endfacet
  facet normal -0 0 1
    outer loop
      vertex 139.809 194.049 15
      vertex 145 190 15
      vertex 140.5 195 15
    endloop
  endfacet
  facet normal 0 0 1
    outer loop
      vertex 135 190 15
      vertex 139.809 194.049 15
      vertex 138.691 194.412 15
    endloop
  endfacet
  facet normal 0 0 1
    outer loop
      vertex 139.809 194.049 15
      vertex 135 190 15
      vertex 145 190 15
    endloop
  endfacet
  facet normal 0 0 1
    outer loop
      vertex 135 190 15
      vertex 138.691 194.412 15
      vertex 135 200 15
    endloop
  endfacet
  facet normal 1 0 0
    outer loop
      vertex 145 10 15
      vertex 145 0 15
      vertex 145 10 13
    endloop
  endfacet
  facet normal 1 0 0
    outer loop
      vertex 145 190 13
      vertex 145 200 15
      vertex 145 190 15
    endloop
  endfacet
  facet normal 1 0 0
    outer loop
      vertex 145 200 15
      vertex 145 190 13
      vertex 145 200 -20
    endloop
  endfacet
  facet normal 1 -0 0
    outer loop
      vertex 145 10 13
      vertex 145 200 -20
      vertex 145 190 13
    endloop
  endfacet
  facet normal 1 0 0
    outer loop
      vertex 145 10 13
      vertex 145 0 -20
      vertex 145 200 -20
    endloop
  endfacet
  facet normal 1 0 0
    outer loop
      vertex 145 0 -20
      vertex 145 10 13
      vertex 145 0 15
    endloop
  endfacet
  facet normal 0 -1 0
    outer loop
      vertex 135 190 13
      vertex 145 190 15
      vertex 135 190 15
    endloop
  endfacet
  facet normal 0 -1 -0
    outer loop
      vertex 145 190 15
      vertex 135 190 13
      vertex 145 190 13
    endloop
  endfacet
  facet normal 0 0 1
    outer loop
      vertex 135 180 13
      vertex 145 190 13
      vertex 135 190 13
    endloop
  endfacet
  facet normal 0 0 1
    outer loop
      vertex 145 190 13
      vertex 135 180 13
      vertex 145 10 13
    endloop
  endfacet
  facet normal 0 0 1
    outer loop
      vertex 145 10 13
      vertex 135 180 13
      vertex 135 10 13
    endloop
  endfacet
  facet normal 0 1 -0
    outer loop
      vertex 145 10 13
      vertex 135 10 15
      vertex 145 10 15
    endloop
  endfacet
  facet normal 0 1 0
    outer loop
      vertex 135 10 15
      vertex 145 10 13
      vertex 135 10 13
    endloop
  endfacet
  facet normal -0.809019 -0.587783 0
    outer loop
      vertex 140.5 5 0
      vertex 139.809 5.95106 15
      vertex 139.809 5.95106 0
    endloop
  endfacet
  facet normal -0.809019 -0.587783 0
    outer loop
      vertex 139.809 5.95106 15
      vertex 140.5 5 0
      vertex 140.5 5 15
    endloop
  endfacet
  facet normal 1 -0 0
    outer loop
      vertex 138.691 4.41221 15
      vertex 138.691 5.58778 0
      vertex 138.691 5.58778 15
    endloop
  endfacet
  facet normal 1 0 0
    outer loop
      vertex 138.691 5.58778 0
      vertex 138.691 4.41221 15
      vertex 138.691 4.41221 0
    endloop
  endfacet
  facet normal 0.309015 -0.951057 0
    outer loop
      vertex 138.691 5.58778 0
      vertex 139.809 5.95106 15
      vertex 138.691 5.58778 15
    endloop
  endfacet
  facet normal 0.309015 -0.951057 0
    outer loop
      vertex 139.809 5.95106 15
      vertex 138.691 5.58778 0
      vertex 139.809 5.95106 0
    endloop
  endfacet
  facet normal 0.309015 0.951057 -0
    outer loop
      vertex 139.809 4.04894 0
      vertex 138.691 4.41221 15
      vertex 139.809 4.04894 15
    endloop
  endfacet
  facet normal 0.309015 0.951057 0
    outer loop
      vertex 138.691 4.41221 15
      vertex 139.809 4.04894 0
      vertex 138.691 4.41221 0
    endloop
  endfacet
  facet normal -0.809019 0.587783 0
    outer loop
      vertex 139.809 4.04894 0
      vertex 140.5 5 15
      vertex 140.5 5 0
    endloop
  endfacet
  facet normal -0.809019 0.587783 0
    outer loop
      vertex 140.5 5 15
      vertex 139.809 4.04894 0
      vertex 139.809 4.04894 15
    endloop
  endfacet
  facet normal -0.809017 -0.587786 0
    outer loop
      vertex 140.5 195 0
      vertex 139.809 195.951 15
      vertex 139.809 195.951 0
    endloop
  endfacet
  facet normal -0.809017 -0.587786 0
    outer loop
      vertex 139.809 195.951 15
      vertex 140.5 195 0
      vertex 140.5 195 15
    endloop
  endfacet
  facet normal 1 -0 0
    outer loop
      vertex 138.691 194.412 15
      vertex 138.691 195.588 0
      vertex 138.691 195.588 15
    endloop
  endfacet
  facet normal 1 0 0
    outer loop
      vertex 138.691 195.588 0
      vertex 138.691 194.412 15
      vertex 138.691 194.412 0
    endloop
  endfacet
  facet normal 0.309011 -0.951058 0
    outer loop
      vertex 138.691 195.588 0
      vertex 139.809 195.951 15
      vertex 138.691 195.588 15
    endloop
  endfacet
  facet normal 0.309011 -0.951058 0
    outer loop
      vertex 139.809 195.951 15
      vertex 138.691 195.588 0
      vertex 139.809 195.951 0
    endloop
  endfacet
  facet normal -0.809017 0.587786 0
    outer loop
      vertex 139.809 194.049 0
      vertex 140.5 195 15
      vertex 140.5 195 0
    endloop
  endfacet
  facet normal -0.809017 0.587786 0
    outer loop
      vertex 140.5 195 15
      vertex 139.809 194.049 0
      vertex 139.809 194.049 15
    endloop
  endfacet
  facet normal 0.309011 0.951058 -0
    outer loop
      vertex 139.809 194.049 0
      vertex 138.691 194.412 15
      vertex 139.809 194.049 15
    endloop
  endfacet
  facet normal 0.309011 0.951058 0
    outer loop
      vertex 138.691 194.412 15
      vertex 139.809 194.049 0
      vertex 138.691 194.412 0
    endloop
  endfacet
  facet normal 0 0 -1
    outer loop
      vertex 0 0 -20
      vertex 145 200 -20
      vertex 145 0 -20
    endloop
  endfacet
  facet normal -0 0 -1
    outer loop
      vertex 145 200 -20
      vertex 0 0 -20
      vertex 0 200 -20
    endloop
  endfacet
  facet normal -0 0 1
    outer loop
      vertex 10 200 23
      vertex 135 180 23
      vertex 135 200 23
    endloop
  endfacet
  facet normal 0 0 1
    outer loop
      vertex 135 180 23
      vertex 10 200 23
      vertex 10 180 23
    endloop
  endfacet
  facet normal 0 -1 0
    outer loop
      vertex 10 180 13
      vertex 135 180 23
      vertex 10 180 23
    endloop
  endfacet
  facet normal 0 -1 0
    outer loop
      vertex 10 180 13
      vertex 135 180 13
      vertex 135 180 23
    endloop
  endfacet
  facet normal 0 -1 0
    outer loop
      vertex 10 180 0
      vertex 135 180 13
      vertex 10 180 13
    endloop
  endfacet
  facet normal 0 -1 -0
    outer loop
      vertex 135 180 13
      vertex 10 180 0
      vertex 135 180 0
    endloop
  endfacet
endsolid OpenSCAD_Model
